# xmcd
#
# Track frame offsets:
#	150
#	11297
#	24552
#	39870
#	53067
#	66035
#	76075
#	89545
#	106432
#	122312
#	139230
#	155037
#	166875
#	181502
#	199600
#	211257
#	230402
#	244210
#	262575
#
# Disc length: 3646 seconds
#
# Revision: 1
# Processed by: cddbd v1.5.2PL0 Copyright (c) Steve Scherf et al.
# Submitted via: audiograbber 1.83.01
#
DISCID=e30e3c13
DTITLE=Various Artist - THE MASCULINE TOUCH/FEMININE TOUCH  CD 2
DYEAR=1900
DGENRE=Country
TTITLE0=CONWAY TWITTY - HALLO DARLIN
TTITLE1=GLEN CAMPBELL - GENTLE ON MY MIND
TTITLE2=KRIS KRISTOFFERSON - FOR THE GOOD TIMES
TTITLE3=CHARLIE RICH - BEHIND CLOSE DOORS
TTITLE4=MARTY ROBBINS - DEVIL WOMAN
TTITLE5=THE STATLER BROTHERS - DO YOU KNOW YOU ARE MY SUNSHINE
TTITLE6=SLIM WHITMAN - I'LL TAKE YOU HOME AGAIN, KATHLEEN
TTITLE7=MERLE HAGGARD - TODAY I STARTED LOVING YOU AGAIN
TTITLE8=WILLIE NELSON - ALWAYS ON MY MIND
TTITLE9=KENNY ROGERS - YOU DECORATED MY LIFE
TTITLE10=CONNIE FRANCIS - IT DOESN'T MATTER ANYMORE
TTITLE11=BONNIE GUITAR - DARK MOON
TTITLE12=BILLIE JO SPEARS - I DON'T WANT TO TALK ABOUT IT
TTITLE13=RITA COOLIDGE - (YOU LOVE KEEPS LIFTING ME) HIGHER AND HIGHER
TTITLE14=PATSY CLINE - WALKIN' AFTER MIDNIGHT
TTITLE15=BOBBIE GENTLY - ODE TO BILLY JOE
TTITLE16=TANYA TUCKER - WHAT'S YOUR MAMA'S NAME,CHILD
TTITLE17=JUICE NEWTON - THE SWEETEST THING (I'VE EVER KNOWN)
TTITLE18=TAMMY WYNETTE - THE WAYS TO LOVE A MAN
EXTD=
EXTT0=
EXTT1=
EXTT2=
EXTT3=
EXTT4=
EXTT5=
EXTT6=
EXTT7=
EXTT8=
EXTT9=
EXTT10=
EXTT11=
EXTT12=
EXTT13=
EXTT14=
EXTT15=
EXTT16=
EXTT17=
EXTT18=
PLAYORDER=
